<svg width="50" height="50" viewBox="0 0 50 50" fill="none" xmlns="http://www.w3.org/2000/svg">
<path d="M43.75 43.75H9.58333C8.41656 43.75 7.83317 43.75 7.38752 43.5229C6.99552 43.3232 6.67681 43.0045 6.47707 42.6125C6.25 42.1668 6.25 41.5834 6.25 40.4167V6.25M41.6667 16.6667L33.5024 25.3805C33.1929 25.7108 33.0382 25.8759 32.8516 25.9612C32.6869 26.0366 32.5053 26.0676 32.3249 26.0514C32.1205 26.033 31.9197 25.9287 31.5181 25.7202L24.7319 22.1965C24.3303 21.988 24.1295 21.8837 23.9251 21.8653C23.7447 21.849 23.5631 21.8801 23.3984 21.9554C23.2118 22.0408 23.0571 22.2059 22.7476 22.5361L14.5833 31.25" stroke="#F5A300" stroke-width="3" stroke-linecap="round" stroke-linejoin="round"/>
</svg>
