<svg width="50" height="50" viewBox="0 0 50 50" fill="none" xmlns="http://www.w3.org/2000/svg">
<path d="M37.2457 41.8545C33.6863 44.4405 29.3997 45.8333 25.0001 45.8333C20.6006 45.8333 16.3139 44.4405 12.7546 41.8545M34.1329 6.2751C38.0872 8.20375 41.3294 11.3347 43.3949 15.2193C45.4604 19.1039 46.243 23.5427 45.6307 27.8994M4.36976 27.8992C3.75746 23.5425 4.54013 19.1037 6.60561 15.2191C8.67108 11.3345 11.9133 8.20355 15.8676 6.2749M36.4585 25C36.4585 31.3282 31.3284 36.4583 25.0001 36.4583C18.6719 36.4583 13.5418 31.3282 13.5418 25C13.5418 18.6717 18.6719 13.5416 25.0001 13.5416C31.3284 13.5416 36.4585 18.6717 36.4585 25Z" stroke="#F5A300" stroke-width="3" stroke-linecap="round" stroke-linejoin="round"/>
</svg>
