<svg width="50" height="50" viewBox="0 0 50 50" fill="none" xmlns="http://www.w3.org/2000/svg">
<path d="M37.2454 41.8545C33.6861 44.4405 29.3995 45.8333 24.9999 45.8333C20.6003 45.8333 16.3137 44.4405 12.7544 41.8545M34.1326 6.2751C38.0869 8.20375 41.3292 11.3347 43.3946 15.2193C45.4601 19.1039 46.2428 23.5427 45.6305 27.8994M4.36952 27.8992C3.75722 23.5425 4.53989 19.1037 6.60536 15.2191C8.67083 11.3345 11.9131 8.20355 15.8674 6.2749M36.4582 25C36.4582 31.3282 31.3282 36.4583 24.9999 36.4583C18.6716 36.4583 13.5416 31.3282 13.5416 25C13.5416 18.6717 18.6716 13.5416 24.9999 13.5416C31.3282 13.5416 36.4582 18.6717 36.4582 25Z" stroke="#F5A300" stroke-width="3" stroke-linecap="round" stroke-linejoin="round"/>
</svg>
