<svg width="257" height="50" viewBox="0 0 257 50" fill="none" xmlns="http://www.w3.org/2000/svg">
<path fill-rule="evenodd" clip-rule="evenodd" d="M50.984 12.8867C51.0945 12.7661 51.2573 12.7077 51.4193 12.7305L61.4146 14.1345C61.5215 14.1495 61.6207 14.1989 61.697 14.2753L64.0468 16.627C64.1399 16.7202 64.1922 16.8466 64.1922 16.9783V19.6459C64.1922 19.9203 63.9697 20.1428 63.6952 20.1428H53.3843C53.2524 20.1428 53.126 20.0904 53.0328 19.9971L51.6299 18.5931C51.5368 18.5 51.4845 18.3736 51.4845 18.2419V16.9783C51.4845 16.7038 51.707 16.4813 51.9815 16.4813C52.2559 16.4813 52.4784 16.7038 52.4784 16.9783V18.0361L53.5903 19.1489H63.1983V17.184L61.1115 15.0956L51.5398 13.7511L45.8245 19.9818C45.7303 20.0844 45.5975 20.1428 45.4582 20.1428H26.5855L11.4751 35.2655C11.435 35.3056 11.3883 35.3386 11.337 35.363L2.69891 39.4716H14.0869L23.7644 30.6164C23.9606 30.4368 24.2635 30.4436 24.4515 30.6318L30.624 36.8093C30.8179 37.0034 30.8179 37.3178 30.624 37.5118L26.4428 41.6965L32.6245 48.1763H39.8051L39.1499 47.5205H34.9018C34.751 47.5205 34.6083 47.452 34.514 47.3343L31.3926 43.4382C31.2343 43.2406 31.2499 42.9554 31.4289 42.7762L37.5394 36.6608L31.7076 26.8118H24.0999C23.8254 26.8118 23.6029 26.5893 23.6029 26.3148C23.6029 26.0403 23.8254 25.8178 24.0999 25.8178H31.9909C32.1665 25.8178 32.3291 25.9105 32.4185 26.0616L38.5911 36.4862C38.7067 36.6814 38.6754 36.9302 38.515 37.0907L32.4465 43.164L35.1405 46.5266H39.3559C39.4877 46.5266 39.6142 46.579 39.7074 46.6723L41.3558 48.322C41.4978 48.4642 41.5402 48.6779 41.4633 48.8635C41.3864 49.0492 41.2052 49.1702 41.0042 49.1702H32.4118C32.2759 49.1702 32.146 49.1146 32.0522 49.0163L25.3887 42.0315C25.2024 41.8362 25.206 41.528 25.3967 41.3372L29.5699 37.1606L24.0845 31.6707L14.6155 40.3352C14.5239 40.419 14.4042 40.4655 14.28 40.4655H0.497021C0.264707 40.4655 0.0633904 40.3046 0.0122434 40.078C-0.0389036 39.8514 0.0737679 39.6195 0.28356 39.5198L10.8327 34.5023L26.028 19.2946C26.1212 19.2013 26.2477 19.1489 26.3795 19.1489H45.2397L50.984 12.8867Z" fill="white"/>
<path fill-rule="evenodd" clip-rule="evenodd" d="M63.3844 19.4149C63.5783 19.6092 63.5781 19.9238 63.3838 20.1178L60.8607 22.6369C60.7676 22.7299 60.6413 22.7822 60.5096 22.7822H51.6742L46.2128 28.235C46.1185 28.3292 45.9902 28.3815 45.8569 28.3802C45.7236 28.3789 45.5964 28.3241 45.5038 28.2281L43.8633 26.5259H42.077C41.8026 26.5259 41.5801 26.3034 41.5801 26.0289C41.5801 25.7544 41.8026 25.5319 42.077 25.5319H44.0745C44.2095 25.5319 44.3387 25.5869 44.4323 25.684L45.8685 27.1742L51.1174 21.9335C51.2106 21.8405 51.3369 21.7882 51.4685 21.7882H60.304L62.6815 19.4144C62.8758 19.2205 63.1904 19.2207 63.3844 19.4149Z" fill="white"/>
<path fill-rule="evenodd" clip-rule="evenodd" d="M50.1899 25.7083C50.3837 25.516 50.6963 25.516 50.8901 25.7083L53.7746 28.5713C53.8686 28.6646 53.9214 28.7916 53.9214 28.924C53.9214 29.0565 53.8686 29.1834 53.7746 29.2768L52.9655 30.0798C52.8315 30.2128 52.6338 30.2584 52.4551 30.1975L50.39 29.4938L46.7393 33.1173C46.5455 33.3097 46.2329 33.3097 46.0391 33.1173L43.8214 30.9161L40.5131 34.1997C40.42 34.2921 40.2942 34.3439 40.163 34.3439H36.6103C36.3358 34.3439 36.1133 34.1214 36.1133 33.8469C36.1133 33.5725 36.3358 33.35 36.6103 33.35H39.9583L43.4713 29.8631C43.665 29.6708 43.9777 29.6708 44.1715 29.8631L46.3892 32.0644L49.9085 28.5713C50.0425 28.4383 50.2402 28.3927 50.4189 28.4536L52.484 29.1573L52.719 28.924L50.54 26.7613L47.6187 29.6608C47.4249 29.8531 47.1123 29.8531 46.9185 29.6608L45.5115 28.2642C45.3167 28.0709 45.3155 27.7562 45.5089 27.5614C45.7022 27.3666 46.0169 27.3654 46.2117 27.5588L47.2686 28.6079L50.1899 25.7083Z" fill="white"/>
<path fill-rule="evenodd" clip-rule="evenodd" d="M23.0079 32.1688C23.2028 31.9755 23.5174 31.9769 23.7107 32.1718L28.411 36.9119C28.6036 37.1061 28.603 37.4195 28.4097 37.6131L24.2699 41.7571L30.6501 48.1763H33.2144C33.4889 48.1763 33.7114 48.3988 33.7114 48.6733C33.7114 48.9477 33.4889 49.1702 33.2144 49.1702H30.4433C30.311 49.1702 30.1841 49.1175 30.0909 49.0236L23.2158 42.1065C23.0228 41.9123 23.0232 41.5986 23.2167 41.4049L27.3569 37.2605L23.0049 32.8716C22.8117 32.6767 22.813 32.3621 23.0079 32.1688Z" fill="white"/>
<path fill-rule="evenodd" clip-rule="evenodd" d="M53.4246 15.8731C53.4246 15.6444 53.61 15.459 53.8387 15.459H56.7377C56.9664 15.459 57.1518 15.6444 57.1518 15.8731C57.1518 16.1019 56.9664 16.2873 56.7377 16.2873H53.8387C53.61 16.2873 53.4246 16.1019 53.4246 15.8731Z" fill="white"/>
<path d="M27.2506 22.7893C27.2506 23.3611 27.6956 23.8247 28.2446 23.8247C28.7935 23.8247 29.2385 23.3611 29.2385 22.7893C29.2385 22.2175 28.7935 21.754 28.2446 21.754C27.6956 21.754 27.2506 22.2175 27.2506 22.7893Z" fill="white"/>
<path d="M49.7801 19.352C49.7801 19.9009 49.3351 20.3459 48.7862 20.3459C48.2372 20.3459 47.7922 19.9009 47.7922 19.352C47.7922 18.803 48.2372 18.358 48.7862 18.358C49.3351 18.358 49.7801 18.803 49.7801 19.352Z" fill="white"/>
<path d="M34.591 37.3137C34.1188 37.5863 33.515 37.4245 33.2423 36.9523C32.9697 36.4801 33.1315 35.8763 33.6037 35.6036C34.0759 35.331 34.6798 35.4928 34.9524 35.965C35.225 36.4372 35.0632 37.041 34.591 37.3137Z" fill="white"/>
<path d="M39.2883 28.2692C38.8161 28.5419 38.2122 28.3801 37.9396 27.9079C37.667 27.4357 37.8288 26.8318 38.301 26.5592C38.7732 26.2866 39.377 26.4484 39.6497 26.9206C39.9223 27.3928 39.7605 27.9966 39.2883 28.2692Z" fill="white"/>
<path d="M38.9379 14.5273C38.4657 14.7999 37.8619 14.6381 37.5893 14.1659C37.3166 13.6937 37.4784 13.0899 37.9506 12.8173C38.4229 12.5446 39.0267 12.7064 39.2993 13.1786C39.5719 13.6508 39.4102 14.2547 38.9379 14.5273Z" fill="white"/>
<path d="M36.2734 5.55294C35.8012 5.82557 35.1973 5.66378 34.9247 5.19156C34.6521 4.71935 34.8139 4.11553 35.2861 3.84289C35.7583 3.57026 36.3621 3.73205 36.6348 4.20427C36.9074 4.67648 36.7456 5.28031 36.2734 5.55294Z" fill="white"/>
<path d="M17.4135 26.5866C16.9413 26.8592 16.3375 26.6974 16.0649 26.2252C15.7922 25.753 15.954 25.1492 16.4262 24.8765C16.8984 24.6039 17.5023 24.7657 17.7749 25.2379C18.0475 25.7101 17.8857 26.3139 17.4135 26.5866Z" fill="white"/>
<path d="M45.8789 35.6309C45.4066 35.9036 44.8028 35.7418 44.5302 35.2696C44.2575 34.7974 44.4193 34.1935 44.8916 33.9209C45.3638 33.6483 45.9676 33.8101 46.2402 34.2823C46.5129 34.7545 46.3511 35.3583 45.8789 35.6309Z" fill="white"/>
<path d="M43.9157 47.7603C43.4435 48.033 42.8397 47.8712 42.567 47.399C42.2944 46.9267 42.4562 46.3229 42.9284 46.0503C43.4006 45.7777 44.0045 45.9394 44.2771 46.4117C44.5497 46.8839 44.3879 47.4877 43.9157 47.7603Z" fill="white"/>
<path d="M20.779 37.8746C20.3068 38.1472 19.703 37.9854 19.4303 37.5132C19.1577 37.041 19.3195 36.4372 19.7917 36.1645C20.2639 35.8919 20.8677 36.0537 21.1404 36.5259C21.413 36.9981 21.2512 37.602 20.779 37.8746Z" fill="white"/>
<path d="M26.458 47.7603C25.9857 48.033 25.3819 47.8712 25.1093 47.399C24.8366 46.9267 24.9984 46.3229 25.4707 46.0503C25.9429 45.7777 26.5467 45.9394 26.8193 46.4117C27.092 46.8839 26.9302 47.4877 26.458 47.7603Z" fill="white"/>
<path fill-rule="evenodd" clip-rule="evenodd" d="M27.9133 22.8308C27.9133 22.6478 28.0617 22.4995 28.2446 22.4995L40.0891 22.4994C40.2721 22.4994 40.4204 22.6478 40.4204 22.8308C40.4204 23.0137 40.2721 23.1621 40.0891 23.1621L28.2446 23.1621C28.0617 23.1621 27.9133 23.0137 27.9133 22.8308Z" fill="white"/>
<path fill-rule="evenodd" clip-rule="evenodd" d="M49.302 19.9479C49.4303 19.8175 49.6401 19.8157 49.7706 19.9441L50.5094 20.671C50.5727 20.7333 50.6084 20.8184 50.6084 20.9072C50.6084 20.996 50.5727 21.0811 50.5094 21.1433L46.5336 25.0548C46.4032 25.1832 46.1934 25.1814 46.0651 25.051C45.9368 24.9206 45.9385 24.7108 46.0689 24.5825L49.8046 20.9072L49.3058 20.4164C49.1754 20.2881 49.1737 20.0783 49.302 19.9479Z" fill="white"/>
<path fill-rule="evenodd" clip-rule="evenodd" d="M34.4071 36.466C34.2777 36.5954 34.068 36.5954 33.9386 36.466L26.4845 29.0119C26.3551 28.8826 26.3551 28.6728 26.4845 28.5434C26.6139 28.414 26.8236 28.414 26.953 28.5434L34.4071 35.9975C34.5365 36.1269 34.5365 36.3367 34.4071 36.466Z" fill="white"/>
<path fill-rule="evenodd" clip-rule="evenodd" d="M39.0807 27.8758C39.3136 27.7305 39.6202 27.8016 39.7654 28.0345L40.8076 29.7055H43.8165C44.0909 29.7055 44.3134 29.928 44.3134 30.2025C44.3134 30.477 44.0909 30.6995 43.8165 30.6995H40.5318C40.3603 30.6995 40.2009 30.611 40.1101 30.4655L38.922 28.5604C38.7768 28.3275 38.8478 28.021 39.0807 27.8758Z" fill="white"/>
<path fill-rule="evenodd" clip-rule="evenodd" d="M21.0954 28.5562C21.1572 28.4965 21.2398 28.4631 21.3257 28.4631H26.5881C26.7711 28.4631 26.9194 28.6114 26.9194 28.7944C26.9194 28.9774 26.7711 29.1257 26.5881 29.1257H21.4597L12.8204 37.4811C12.6889 37.6083 12.4792 37.6048 12.3519 37.4732C12.2247 37.3417 12.2282 37.132 12.3598 37.0047L21.0954 28.5562Z" fill="white"/>
<path fill-rule="evenodd" clip-rule="evenodd" d="M35.5704 5.12117C32.4145 5.00062 29.2707 5.57429 26.3608 6.8017C23.451 8.02911 20.846 9.88032 18.7299 12.2246C16.6138 14.569 15.0381 17.3492 14.1141 20.3692C13.19 23.3891 12.9402 26.575 13.3822 29.7021C13.4142 29.9285 13.2566 30.1381 13.0301 30.1701C12.8036 30.2021 12.5941 30.0445 12.5621 29.818C12.1031 26.5709 12.3625 23.2627 13.322 20.1268C14.2815 16.9909 15.9177 14.104 18.1151 11.6696C20.3124 9.23533 23.0174 7.31306 26.0389 6.03853C29.0605 4.76401 32.325 4.16831 35.602 4.29349C35.8305 4.30222 36.0087 4.49458 36 4.72314C35.9913 4.9517 35.7989 5.12991 35.5704 5.12117Z" fill="white"/>
<path fill-rule="evenodd" clip-rule="evenodd" d="M50.4016 11.229C50.2732 11.3594 50.0635 11.3611 49.9331 11.2327C47.0354 8.38059 43.3931 6.40211 39.4232 5.52383C39.2446 5.4843 39.1318 5.30742 39.1713 5.12876C39.2109 4.9501 39.3877 4.83731 39.5664 4.87684C43.6578 5.78201 47.4115 7.82105 50.3979 10.7605C50.5283 10.8888 50.5299 11.0986 50.4016 11.229Z" fill="white"/>
<path fill-rule="evenodd" clip-rule="evenodd" d="M16.8834 39.4754C17.0667 39.3386 17.3262 39.3763 17.463 39.5596C19.8273 42.7279 23.0171 45.1854 26.6838 46.6634C26.8959 46.7489 26.9986 46.9902 26.913 47.2024C26.8275 47.4145 26.5862 47.5172 26.3741 47.4317C22.5666 45.8968 19.2543 43.345 16.7991 40.055C16.6623 39.8716 16.7 39.6121 16.8834 39.4754Z" fill="white"/>
<path fill-rule="evenodd" clip-rule="evenodd" d="M42.5622 47.2418C42.4769 47.0295 42.5798 46.7883 42.7921 46.7031C47.1993 44.932 50.899 41.7562 53.3174 37.6681C55.7358 33.5801 56.7376 28.8083 56.1676 24.0928C56.1401 23.8657 56.302 23.6594 56.529 23.6319C56.7561 23.6045 56.9624 23.7663 56.9899 23.9934C57.5818 28.8899 56.5415 33.8448 54.0303 38.0898C51.5191 42.3348 47.6774 45.6326 43.1009 47.4716C42.8887 47.5569 42.6475 47.454 42.5622 47.2418Z" fill="white"/>
<path fill-rule="evenodd" clip-rule="evenodd" d="M19.6828 36.2667C19.8729 36.1395 20.1301 36.1904 20.2574 36.3805C20.9801 37.4602 21.8212 38.4558 22.7651 39.3486C22.9312 39.5058 22.9385 39.7679 22.7814 39.9341C22.6242 40.1003 22.3621 40.1075 22.1959 39.9504C21.2072 39.0151 20.3261 37.9722 19.569 36.8412C19.4418 36.6511 19.4928 36.3939 19.6828 36.2667Z" fill="white"/>
<path fill-rule="evenodd" clip-rule="evenodd" d="M34.9799 44.5066C34.9741 44.3237 35.1177 44.1707 35.3006 44.165C38.9582 44.0492 42.4876 42.7906 45.3931 40.5659C48.2987 38.3412 50.4342 35.2621 51.4999 31.7613C51.5532 31.5863 51.7383 31.4875 51.9134 31.5408C52.0884 31.5941 52.1871 31.7792 52.1338 31.9543C51.0278 35.5876 48.8114 38.7831 45.796 41.092C42.7805 43.4009 39.1175 44.7071 35.3215 44.8273C35.1386 44.833 34.9857 44.6895 34.9799 44.5066Z" fill="white"/>
<path fill-rule="evenodd" clip-rule="evenodd" d="M47.2579 13.9323C47.1014 14.0991 46.8393 14.1075 46.6725 13.951C44.237 11.6658 41.1962 10.1285 37.912 9.52196C34.6278 8.91543 31.2385 9.26523 28.1474 10.5297C25.0564 11.7942 22.3937 13.9202 20.4762 16.6546C18.5587 19.3891 17.4673 22.6168 17.3317 25.9538C17.3224 26.1823 17.1296 26.3601 16.901 26.3508C16.6725 26.3415 16.4948 26.1487 16.5041 25.9201C16.6461 22.4246 17.7894 19.0435 19.798 16.1791C21.8066 13.3147 24.5958 11.0877 27.8338 9.76311C31.0718 8.43851 34.6222 8.07209 38.0624 8.70745C41.5027 9.3428 44.688 10.9532 47.2392 13.347C47.406 13.5035 47.4144 13.7655 47.2579 13.9323Z" fill="white"/>
<path fill-rule="evenodd" clip-rule="evenodd" d="M35.6302 13.6668C33.2181 13.503 30.8079 14.0128 28.6686 15.1392C26.5294 16.2656 24.7452 17.9643 23.5153 20.0458C23.4222 20.2033 23.219 20.2555 23.0615 20.1624C22.904 20.0694 22.8517 19.8662 22.9448 19.7087C24.2372 17.5215 26.112 15.7365 28.3599 14.5529C30.6078 13.3692 33.1404 12.8336 35.6751 13.0057C35.8576 13.0181 35.9956 13.1761 35.9832 13.3587C35.9708 13.5412 35.8128 13.6792 35.6302 13.6668Z" fill="white"/>
<path fill-rule="evenodd" clip-rule="evenodd" d="M44.5758 17.6088C44.4124 17.7689 44.1502 17.7662 43.9901 17.6029C42.4 15.9803 40.4108 14.8049 38.2224 14.1948C38.0021 14.1333 37.8733 13.9049 37.9347 13.6846C37.9962 13.4643 38.2246 13.3355 38.4449 13.3969C40.7733 14.0461 42.8898 15.2967 44.5817 17.0231C44.7418 17.1865 44.7391 17.4487 44.5758 17.6088Z" fill="white"/>
<path fill-rule="evenodd" clip-rule="evenodd" d="M38.2963 39.1074C41.0217 38.3301 43.4166 36.6797 45.1133 34.4096C45.2503 34.2264 45.5098 34.1889 45.693 34.3259C45.8762 34.4628 45.9137 34.7223 45.7768 34.9055C43.9715 37.3209 41.4233 39.0769 38.5235 39.9039C38.3035 39.9667 38.0744 39.8392 38.0116 39.6192C37.9489 39.3993 38.0764 39.1701 38.2963 39.1074Z" fill="white"/>
<path d="M241.025 48.4102V43.7878H251.369L252.37 42.7914V42.8731L251.401 41.8931H244.243L240.861 38.5283V34.1346L244.243 30.7698H256.672V35.3923H246.492L245.491 36.3886V36.2906L246.492 37.287H253.618L257 40.6517V45.0455L253.618 48.4102H241.025ZM242.273 47.1199H253.06L255.736 44.4412V41.1417L253.043 38.4957H245.77L244.276 37.0093V35.6863L245.852 34.1182H255.44V32.0112H244.834L242.142 34.6899V37.9893L244.752 40.5864H252.025L253.601 42.1218V43.4448L252.025 45.0128H242.273V47.1199Z" fill="white"/>
<path d="M226.216 48.4102L222.833 45.0455V30.7698H227.48V42.7914L228.481 43.7878H233.308L234.31 42.7914V30.7698H238.956V45.0455L235.574 48.4102H226.216ZM226.938 47.1362H234.95L237.708 44.3105V32.0112H235.59V43.2978L233.916 45.0455H227.972L226.199 43.2978V32.0112H224.098V44.3105L226.938 47.1362Z" fill="white"/>
<path d="M205.21 48.4102V43.8041H208.394V35.6209L208.148 35.3759H205.243V30.7698H209.396L210.512 32.0765L211.776 30.7698H218.162L221.757 34.3469L218.178 37.8097L215.913 35.3923H214.041L213.04 36.3886V43.8205H216.225V48.4102H205.21ZM206.408 47.1525H215.043V45.0618H211.776V35.67L213.303 34.1509H216.652L218.359 36.013L219.984 34.4286L217.669 32.0602H212.269L210.594 33.7589L209.035 32.0602H206.424V34.1509H208.559L209.658 35.3433V45.0618H206.408V47.1525Z" fill="white"/>
<path d="M190.564 48.4102L187.182 45.0455V30.7698H191.828V42.7914L192.83 43.7878H197.657L198.658 42.7914V30.7698H203.305V45.0455L199.923 48.4102H190.564ZM191.287 47.1362H199.299L202.057 44.3105V32.0112H199.939V43.2978L198.264 45.0455H192.321L190.548 43.2978V32.0112H188.446V44.3105L191.287 47.1362Z" fill="white"/>
<path d="M171.703 48.4102L168.322 45.0455V40.3904L171.703 37.0256H180.632V36.3886L179.631 35.3923H168.551V30.7698H181.896L185.277 34.1346V45.0455L181.896 48.4102H171.703ZM173.393 45.0618L171.703 43.3958V41.6644L173.131 40.2434H181.994V43.3141L180.238 45.0618H173.393ZM172.359 47.1525H181.272L184.112 44.3268V34.7716L181.338 32.0112H169.897V34.1019H180.304L181.994 35.7843V38.2343H172.277L169.602 40.8804V44.4085L172.359 47.1525ZM173.968 43.7878H179.631L180.632 42.7914V41.4848H173.64L172.95 42.1708V42.7914L173.968 43.7878Z" fill="white"/>
<path d="M151.021 48.4102V43.7878H161.311L162.307 42.7914V42.8731L161.344 41.8931H154.222L150.857 38.5283V34.1346L154.222 30.7698H166.587V35.3923H156.46L155.464 36.3886V36.2906L156.46 37.287H163.549L166.913 40.6517V45.0455L163.549 48.4102H151.021ZM152.262 47.1199H162.993L165.656 44.4412V41.1417L162.977 38.4957H155.741L154.255 37.0093V35.6863L155.823 34.1182H165.362V32.0112H154.81L152.131 34.6899V37.9893L154.729 40.5864H161.964L163.532 42.1218V43.4448L161.964 45.0128H152.262V47.1199Z" fill="white"/>
<path d="M135.296 48.4102L131.931 45.0455V34.1346L135.296 30.7698H145.505L148.869 34.1346V45.0455L145.505 48.4102H135.296ZM136.047 47.1525H144.868L147.612 44.4085V34.7553L144.868 32.0112H135.982L133.222 34.7716V44.3268L136.047 47.1525ZM137.077 45.0618L135.312 43.3141V35.7843L137.011 34.1182H143.839L145.505 35.768V43.3958L143.839 45.0618H137.077ZM137.55 43.7878H143.251L144.247 42.7914V36.3886L143.251 35.3923H137.55L136.554 36.3886V42.7914L137.55 43.7878Z" fill="white"/>
<path d="M115.423 48.4103V25.5431H120.045V37.336H123.377L125.321 35.3923V30.7699H129.944V37.336L127.64 39.6227L129.944 41.9585V48.4103H125.321V43.8858L123.377 41.9585H120.045V48.4103H115.423ZM116.681 47.1363H118.788V40.6518H123.998L126.579 43.2652V47.1363H128.669V42.4158L125.942 39.6064L128.669 36.8787V31.9786H126.579V36.0293L124.031 38.5611H118.788V26.7681H116.681V47.1363Z" fill="white"/>
<path d="M97.7546 48.4102V34.1346L101.119 30.7698H110.07L113.435 34.1346V48.4102H108.829V36.3886L107.833 35.3923H103.357L102.361 36.3886V48.4102H97.7546ZM99.0287 47.1525H101.119V35.7843L102.818 34.1182H108.421L110.087 35.768V47.1525H112.177V34.7553L109.433 32.0112H101.789L99.0287 34.7716V47.1525Z" fill="white"/>
<path d="M82.1934 48.4102L78.8286 45.0455V34.1346L82.1934 30.7698H92.4019L95.7667 34.1346V45.0455L92.4019 48.4102H82.1934ZM82.9447 47.1525H91.7649L94.509 44.4085V34.7553L91.7649 32.0112H82.8794L80.119 34.7716V44.3268L82.9447 47.1525ZM83.9737 45.0618L82.2097 43.3141V35.7843L83.9084 34.1182H90.7359L92.4019 35.768V43.3958L90.7359 45.0618H83.9737ZM84.4474 43.7878H90.1479L91.1442 42.7914V36.3886L90.1479 35.3923H84.4474L83.4511 36.3886V42.7914L84.4474 43.7878Z" fill="white"/>
<path d="M59.968 48.4105V25.5433H72.741L76.1057 28.908V34.7392L74.652 36.1929L76.8407 38.3979V45.0457L73.476 48.4105H59.968ZM61.291 47.1691H72.8226L75.583 44.4087V38.8716L73.0513 36.3235H72.7573L74.8317 34.2491V29.4634L72.104 26.7356H61.291V47.1691ZM63.3818 45.0784V37.7609H71.4343L73.4923 39.8026V43.396L71.7936 45.0784H63.3818ZM63.3818 35.6538V28.8427H71.0749L72.741 30.4761V33.3998L70.4543 35.6538H63.3818ZM64.5905 43.788H71.2219L72.2183 42.7917V40.4886L70.7809 39.0513H64.5905V43.788ZM64.5905 34.4288H69.8662L71.4996 32.8118V31.1621L70.5033 30.1657H64.5905V34.4288Z" fill="white"/>
</svg>
