<svg width="36" height="28" viewBox="0 0 36 28" fill="none" xmlns="http://www.w3.org/2000/svg">
<g clip-path="url(#clip0_1503_2694)">
<mask id="mask0_1503_2694" style="mask-type:luminance" maskUnits="userSpaceOnUse" x="0" y="0" width="36" height="28">
<path d="M35.9897 0H0V28H35.9897V0Z" fill="white"/>
</mask>
<g mask="url(#mask0_1503_2694)">
<path d="M35.2803 27.6205V27.6924H35.3474C35.36 27.6926 35.3724 27.6895 35.3834 27.6833C35.3877 27.6802 35.3913 27.676 35.3936 27.6712C35.396 27.6664 35.3971 27.6611 35.3969 27.6557C35.3971 27.6505 35.396 27.6453 35.3936 27.6406C35.3913 27.6359 35.3877 27.6319 35.3834 27.6289C35.3725 27.6224 35.36 27.6192 35.3474 27.6197L35.2803 27.6205ZM35.3481 27.5695C35.3769 27.5678 35.4054 27.576 35.4287 27.5929C35.4381 27.6006 35.4455 27.6103 35.4504 27.6214C35.4553 27.6325 35.4576 27.6445 35.457 27.6566C35.4574 27.667 35.4556 27.6774 35.4517 27.6871C35.4478 27.6967 35.4418 27.7054 35.4343 27.7126C35.4163 27.7282 35.3937 27.7377 35.3699 27.7394L35.4599 27.842H35.3906L35.3078 27.7401H35.281V27.842H35.223V27.5697L35.3481 27.5695ZM35.3301 27.9359C35.3605 27.9362 35.3906 27.9301 35.4185 27.9179C35.4453 27.9063 35.4697 27.8898 35.4904 27.8691C35.5112 27.8485 35.5277 27.8241 35.5392 27.7972C35.5628 27.7401 35.5628 27.676 35.5392 27.619C35.5276 27.5922 35.511 27.5678 35.4904 27.547C35.4697 27.5264 35.4453 27.5098 35.4185 27.4983C35.3904 27.4868 35.3604 27.481 35.3301 27.4814C35.2993 27.4811 35.2687 27.4868 35.2401 27.4983C35.2127 27.5096 35.1877 27.5262 35.1665 27.547C35.1347 27.5797 35.1132 27.621 35.1046 27.6658C35.0961 27.7106 35.1009 27.7569 35.1185 27.799C35.1294 27.826 35.1458 27.8505 35.1665 27.8709C35.1877 27.8918 35.2127 27.9083 35.2401 27.9197C35.2686 27.9318 35.2992 27.938 35.3301 27.9377M35.3301 27.4159C35.4092 27.4158 35.4851 27.4468 35.5415 27.5022C35.5687 27.5288 35.5904 27.5606 35.6053 27.5956C35.6206 27.6316 35.6286 27.6703 35.6286 27.7094C35.6286 27.7486 35.6206 27.7873 35.6053 27.8233C35.59 27.8581 35.5684 27.8898 35.5415 27.9166C35.5139 27.9431 35.4818 27.9644 35.4467 27.9796C35.4098 27.9953 35.3702 28.0033 35.3301 28.003C35.2896 28.0033 35.2494 27.9954 35.2121 27.9796C35.1765 27.9648 35.1441 27.9434 35.1165 27.9166C35.0896 27.8888 35.0683 27.8561 35.0537 27.8202C35.0383 27.7842 35.0304 27.7455 35.0304 27.7064C35.0304 27.6673 35.0383 27.6285 35.0537 27.5926C35.0686 27.5575 35.0902 27.5258 35.1174 27.4992C35.1447 27.4719 35.1772 27.4505 35.213 27.4362C35.2503 27.4205 35.2905 27.4125 35.331 27.4128M7.77639 26.3644C7.77639 25.8453 8.11649 25.4188 8.67235 25.4188C9.20356 25.4188 9.56202 25.8269 9.56202 26.3644C9.56202 26.9019 9.20356 27.31 8.67235 27.31C8.11649 27.31 7.77639 26.8836 7.77639 26.3644ZM10.1675 26.3644V24.887H9.52531V25.2469C9.32161 24.981 9.01264 24.8142 8.59246 24.8142C7.76469 24.8142 7.11508 25.4634 7.11508 26.3651C7.11508 27.2669 7.76433 27.9161 8.59246 27.9161C9.01246 27.9161 9.32161 27.7491 9.52531 27.4833V27.842H10.1668L10.1675 26.3644ZM31.8679 26.3644C31.8679 25.8453 32.208 25.4188 32.764 25.4188C33.2958 25.4188 33.6537 25.8269 33.6537 26.3644C33.6537 26.9019 33.2958 27.31 32.764 27.31C32.2082 27.31 31.8679 26.8836 31.8679 26.3644ZM34.2598 26.3644V23.7012H33.617V25.2469C33.4133 24.981 33.1043 24.8142 32.6841 24.8142C31.8564 24.8142 31.2068 25.4634 31.2068 26.3651C31.2068 27.2669 31.856 27.9161 32.6841 27.9161C33.1043 27.9161 33.4133 27.7491 33.617 27.4833V27.842H34.2598V26.3644ZM18.1385 25.3884C18.5524 25.3884 18.8182 25.6479 18.886 26.1047H17.3536C17.4222 25.6783 17.6809 25.3884 18.1385 25.3884ZM18.1515 24.8125C17.2859 24.8125 16.6804 25.4424 16.6804 26.3635C16.6804 27.3027 17.3102 27.9145 18.1945 27.9145C18.6393 27.9145 19.0467 27.8035 19.4052 27.5006L19.0905 27.0246C18.8429 27.2226 18.5276 27.3336 18.2312 27.3336C17.8173 27.3336 17.4405 27.142 17.3478 26.6102H19.5409C19.5472 26.5303 19.5537 26.4497 19.5537 26.3633C19.5472 25.4425 18.9782 24.8125 18.1515 24.8125ZM25.9051 26.3633C25.9051 25.8442 26.2452 25.4177 26.8011 25.4177C27.3323 25.4177 27.6908 25.8258 27.6908 26.3633C27.6908 26.9008 27.3323 27.309 26.8011 27.309C26.2452 27.309 25.9051 26.8825 25.9051 26.3633ZM28.2961 26.3633V24.887H27.6542V25.2469C27.4498 24.981 27.1415 24.8142 26.7214 24.8142C25.8936 24.8142 25.244 25.4634 25.244 26.3651C25.244 27.2669 25.8932 27.9161 26.7214 27.9161C27.1415 27.9161 27.4498 27.7491 27.6542 27.4833V27.842H28.2963V26.3644L28.2961 26.3633ZM22.2783 26.3633C22.2783 27.2593 22.902 27.9143 23.8539 27.9143C24.2987 27.9143 24.5951 27.8153 24.9156 27.5621L24.6071 27.043C24.366 27.2163 24.1128 27.309 23.8334 27.309C23.3207 27.3027 22.9437 26.932 22.9437 26.3633C22.9437 25.7947 23.3207 25.4242 23.8334 25.4177C24.1121 25.4177 24.3653 25.5104 24.6071 25.6837L24.9156 25.1645C24.5946 24.9113 24.2982 24.8124 23.8539 24.8124C22.902 24.8124 22.2783 25.4672 22.2783 26.3633ZM30.5577 24.8124C30.1872 24.8124 29.9459 24.9856 29.7791 25.2451V24.887H29.1426V27.8403H29.7855V26.1848C29.7855 25.6961 29.9955 25.4245 30.4154 25.4245C30.5528 25.4226 30.6893 25.4478 30.817 25.4989L31.0149 24.8935C30.8728 24.8375 30.6878 24.8124 30.5577 24.8124ZM13.3427 25.1219C13.0338 24.9182 12.608 24.8129 12.1383 24.8129C11.3901 24.8129 10.9084 25.1715 10.9084 25.7583C10.9084 26.2399 11.267 26.537 11.9274 26.6297L12.2308 26.6728C12.583 26.7223 12.7493 26.815 12.7493 26.9818C12.7493 27.2102 12.5153 27.3405 12.0761 27.3405C11.6312 27.3405 11.3102 27.1983 11.0937 27.0315L10.792 27.5323C11.1441 27.7918 11.589 27.9156 12.0707 27.9156C12.9236 27.9156 13.4179 27.5139 13.4179 26.9516C13.4179 26.4324 13.0289 26.1609 12.3861 26.0682L12.0834 26.0243C11.8054 25.9883 11.5827 25.9324 11.5827 25.7344C11.5827 25.5185 11.7927 25.3886 12.145 25.3886C12.522 25.3886 12.8869 25.5307 13.0658 25.6417L13.3438 25.1226L13.3427 25.1219ZM21.6295 24.8134C21.259 24.8134 21.0177 24.9867 20.8516 25.2462V24.887H20.2151V27.8403H20.8574V26.1848C20.8574 25.6961 21.0674 25.4245 21.4872 25.4245C21.6247 25.4226 21.7612 25.4478 21.8888 25.4989L22.0868 24.8935C21.9446 24.8375 21.7596 24.8134 21.6295 24.8134ZM16.149 24.887H15.0988V23.9911H14.4496V24.887H13.8505V25.474H14.4496V26.8213C14.4496 27.5065 14.7156 27.9147 15.4753 27.9147C15.754 27.9147 16.0751 27.8283 16.2788 27.6863L16.0932 27.1364C15.9016 27.2474 15.6916 27.3034 15.5246 27.3034C15.2036 27.3034 15.0988 27.1054 15.0988 26.8091V25.4746H16.149V24.887ZM6.54716 27.8411V25.9876C6.54716 25.2896 6.10233 24.8199 5.38523 24.8136C5.00824 24.8073 4.61937 24.9246 4.34711 25.3391C4.14341 25.0116 3.82238 24.8136 3.37107 24.8136C3.05562 24.8136 2.74737 24.9063 2.50606 25.2521V24.887H1.86328V27.8403H2.51109V26.2028C2.51109 25.6901 2.79541 25.4177 3.23449 25.4177C3.66097 25.4177 3.87672 25.6957 3.87672 26.1963V27.84H4.52598V26.2025C4.52598 25.6898 4.82235 25.4173 5.24865 25.4173C5.68719 25.4173 5.89647 25.6954 5.89647 26.196V27.8396L6.54716 27.8411Z" fill="white"/>
<path d="M35.6482 18.0177V17.5859H35.5358L35.4057 17.8822L35.2763 17.5859H35.1634V18.0177H35.2433V17.6924L35.365 17.9731H35.4478L35.5694 17.6917V18.0177H35.6482ZM34.9347 18.0177V17.6598H35.0787V17.5869H34.7109V17.6598H34.8548V18.0177H34.9347Z" fill="#F79410"/>
<path d="M22.8655 19.8699H13.1328V2.37891H22.8656L22.8655 19.8699Z" fill="#FF5F00"/>
<path d="M13.7481 11.1239C13.7481 7.57585 15.4094 4.41523 17.9963 2.37839C16.0381 0.834338 13.6161 -0.00367252 11.1224 1.20988e-05C4.97954 1.20988e-05 0 4.98027 0 11.1239C0 17.2675 4.97954 22.2478 11.1224 22.2478C13.6162 22.2515 16.0382 21.4135 17.9965 19.8694C15.4097 17.8329 13.7481 14.6721 13.7481 11.1239Z" fill="#EB001B"/>
<path d="M35.9935 11.1239C35.9935 17.2675 31.0139 22.2478 24.871 22.2478C22.377 22.2514 19.9547 21.4134 17.9961 19.8694C20.5837 17.8326 22.245 14.6721 22.245 11.1239C22.245 7.57567 20.5837 4.41523 17.9961 2.37839C19.9546 0.834385 22.3769 -0.00360793 24.8708 1.16768e-05C31.0137 1.16768e-05 35.9935 4.98027 35.9935 11.1239Z" fill="#F79E1B"/>
</g>
</g>
<defs>
<clipPath id="clip0_1503_2694">
<rect width="36" height="28" fill="white"/>
</clipPath>
</defs>
</svg>
